<svg id="Capa_1" enable-background="new 0 0 512 512" height="512" viewBox="0 0 512 512" width="512" xmlns="http://www.w3.org/2000/svg"><g><path d="m186.846 260.742 73.896-73.896-171.566-171.566c-20.372-20.372-53.523-20.374-73.896 0-20.373 20.373-20.373 53.522 0 73.895z"/><path d="m341.082 267.186v147.792l29.449 29.449v-147.791z"/><path d="m400.531 474.41h-.016l37.589 37.59 73.896-73.896-111.469-111.468z"/><path d="m250.894 324.789 60.188 60.189v-120.377z"/><path d="m512 21.213-21.213-21.213-29.316 29.316-29.316-29.316-21.213 21.213 29.316 29.316-312.75 312.75-21.214-21.215-30.306 30.306 63.642 63.642 30.306-30.305-21.215-21.215 312.75-312.75 29.316 29.317 21.213-21.213-29.316-29.317z"/><path d="m20.477 407.79h77.464v90.004h-77.464z" transform="matrix(.707 -.707 .707 .707 -302.832 174.489)"/></g></svg>